<svg width="106" height="71" viewBox="0 0 106 71" fill="none" xmlns="http://www.w3.org/2000/svg">
<g id="unionpfof_logo" clip-path="url(#clip0_22_65)">
<g id="Group">
<g id="Group_2">
<g id="Group_3">
<g id="Group_4">
<path id="Vector" d="M6.09908 70.7172C4.79933 70.7172 3.69061 70.5078 2.77291 70.0892C1.85512 69.6704 1.1636 69.0975 0.698161 68.3703C0.232719 67.643 0 66.8211 0 65.9044C0 64.9876 0.232719 64.1657 0.698161 63.4384C1.1636 62.7112 1.85512 62.1383 2.77291 61.7195C3.69061 61.3009 4.79933 61.0916 6.09908 61.0916C7.31979 61.0916 8.3692 61.2634 9.24742 61.6072C10.1256 61.951 10.8106 62.4182 11.3024 63.0088C11.7942 63.5994 12.0972 64.2692 12.2114 65.0185H9.36594C9.29575 64.7453 9.13544 64.4852 8.88519 64.2384C8.63485 63.9915 8.27696 63.791 7.81152 63.6368C7.34608 63.4825 6.77529 63.4054 6.09908 63.4054C5.39649 63.4054 4.80155 63.5133 4.31415 63.7293C3.82676 63.9453 3.4601 64.2428 3.21419 64.6218C2.96828 65.0009 2.84532 65.4283 2.84532 65.9044C2.84532 66.3804 2.96828 66.8078 3.21419 67.1869C3.4601 67.5659 3.82676 67.8635 4.31415 68.0794C4.80155 68.2954 5.39649 68.4033 6.09908 68.4033C6.77529 68.4033 7.34608 68.3262 7.81152 68.172C8.27696 68.0177 8.63485 67.8172 8.88519 67.5704C9.13544 67.3235 9.29575 67.0636 9.36594 66.7902H12.2114C12.0972 67.5483 11.7942 68.2205 11.3024 68.8066C10.8106 69.3928 10.1256 69.8578 9.24742 70.2016C8.3692 70.5453 7.31979 70.7172 6.09908 70.7172Z" fill="#007AFF"/>
</g>
<g id="Group_5">
<path id="Vector_2" d="M19.4698 70.7172C18.1436 70.7172 17.0152 70.5078 16.0843 70.0892C15.1534 69.6704 14.453 69.0975 13.9832 68.3703C13.5133 67.643 13.2784 66.8211 13.2784 65.9044C13.2784 64.9876 13.5133 64.1657 13.9832 63.4384C14.453 62.7112 15.1534 62.1383 16.0843 61.7195C17.0152 61.3009 18.1436 61.0916 19.4698 61.0916C20.7958 61.0916 21.9243 61.3009 22.8552 61.7195C23.786 62.1383 24.4864 62.7112 24.9563 63.4384C25.4262 64.1657 25.661 64.9876 25.661 65.9044C25.661 66.8211 25.4262 67.643 24.9563 68.3703C24.4864 69.0975 23.786 69.6704 22.8552 70.0892C21.9243 70.5078 20.7958 70.7172 19.4698 70.7172ZM19.4698 68.4033C20.1986 68.4033 20.8133 68.2954 21.3139 68.0794C21.8145 67.8635 22.1899 67.5659 22.4403 67.1869C22.6905 66.8078 22.8157 66.3804 22.8157 65.9044C22.8157 65.4283 22.6905 65.0009 22.4403 64.6218C22.1899 64.2428 21.8145 63.9453 21.3139 63.7293C20.8133 63.5133 20.1986 63.4054 19.4698 63.4054C18.7408 63.4054 18.1261 63.5133 17.6255 63.7293C17.1249 63.9453 16.7495 64.2428 16.4992 64.6218C16.2489 65.0009 16.1238 65.4283 16.1238 65.9044C16.1238 66.3804 16.2489 66.8078 16.4992 67.1869C16.7495 67.5659 17.1249 67.8635 17.6255 68.0794C18.1261 68.2954 18.7408 68.4033 19.4698 68.4033Z" fill="#007AFF"/>
</g>
<g id="Group_6">
<path id="Vector_3" d="M36.8971 70.7109C35.707 70.7109 34.6775 70.5004 33.8087 70.0793C32.94 69.6583 32.2766 69.0847 31.8186 68.3585C31.3605 67.6323 31.1315 66.8142 31.1315 65.9043C31.1315 64.9943 31.3605 64.1762 31.8186 63.4501C32.2766 62.7239 32.94 62.1503 33.8087 61.7292C34.6775 61.3081 35.707 61.0977 36.8971 61.0977C38.0875 61.0977 39.1171 61.3081 39.9858 61.7292C40.8546 62.1503 41.5179 62.7239 41.9759 63.4501C42.4338 64.1762 42.6628 64.9943 42.6628 65.9043C42.6628 66.8142 42.4338 67.6323 41.9759 68.3585C41.5179 69.0847 40.8546 69.6583 39.9858 70.0793C39.1171 70.5004 38.0875 70.7109 36.8971 70.7109ZM27.2014 70.532V61.2765H30.0467V70.532H27.2014ZM29.6911 66.9953V64.7596H32.3288V66.9953H29.6911ZM36.8405 68.4092C37.4527 68.4092 37.9829 68.2996 38.4313 68.0805C38.8796 67.8615 39.2228 67.5617 39.4606 67.1812C39.6986 66.8007 39.8175 66.3751 39.8175 65.9043C39.8175 65.4336 39.6986 65.008 39.4606 64.6275C39.2228 64.247 38.8796 63.9472 38.4313 63.728C37.9829 63.5089 37.4527 63.3993 36.8405 63.3993C36.2304 63.3993 35.701 63.5089 35.2526 63.728C34.8042 63.9472 34.461 64.247 34.2232 64.6275C33.9855 65.008 33.8666 65.4336 33.8666 65.9043C33.8666 66.3751 33.9855 66.8007 34.2232 67.1812C34.461 67.5617 34.8042 67.8615 35.2526 68.0805C35.701 68.2996 36.2304 68.4092 36.8405 68.4092Z" fill="#007AFF"/>
</g>
<g id="Group_7">
<path id="Vector_4" d="M48.4787 70.7109C47.2209 70.7109 46.1998 70.5719 45.4152 70.294C44.6305 70.016 44.0619 69.6349 43.7092 69.1504C43.3566 68.6659 43.1803 68.0922 43.1803 67.4292V67.3231H46.0256V67.4292C46.0256 67.64 46.103 67.8289 46.2578 67.9959C46.4126 68.1628 46.6721 68.2988 47.0363 68.4039C47.4006 68.509 47.8814 68.5615 48.4787 68.5615C49.3904 68.5615 50.0182 68.48 50.3621 68.3168C50.706 68.1536 50.878 67.9313 50.878 67.6498C50.878 67.3764 50.7208 67.1596 50.4062 66.9996C50.0915 66.8394 49.5326 66.7594 48.7292 66.7594H46.6487V64.9302H48.7292C49.4847 64.9302 50.0098 64.8557 50.3043 64.7067C50.599 64.5578 50.7463 64.3565 50.7463 64.1028C50.7463 63.936 50.6821 63.7905 50.5537 63.6663C50.4254 63.5422 50.1956 63.4413 49.8644 63.3636C49.5333 63.2859 49.0713 63.2471 48.4787 63.2471C47.9029 63.2471 47.4439 63.2962 47.1016 63.3946C46.7593 63.4929 46.5164 63.6238 46.3727 63.7873C46.2292 63.9508 46.1573 64.1381 46.1573 64.349V64.4193H43.312V64.2788C43.312 63.6469 43.4845 63.0943 43.8294 62.6211C44.1743 62.1479 44.7302 61.7756 45.4972 61.5044C46.2641 61.2332 47.258 61.0977 48.4787 61.0977C49.7075 61.0977 50.7066 61.2157 51.4759 61.4516C52.2454 61.6875 52.7982 61.9962 53.1362 62.3775C53.4732 62.7589 53.6426 63.1754 53.6426 63.627C53.6426 64.0236 53.5569 64.3683 53.3865 64.6609C53.2161 64.9535 52.9619 65.18 52.6249 65.3404C52.2877 65.5007 51.8759 65.581 51.3895 65.581H51.1888L51.7229 64.7808V66.6038L51.1888 65.8239H51.3988C51.8892 65.8239 52.3129 65.9136 52.6702 66.093C53.0274 66.2724 53.2999 66.52 53.4895 66.8361C53.6792 67.152 53.7736 67.5137 53.7736 67.9213C53.7736 68.4548 53.6041 68.9301 53.2642 69.3471C52.9244 69.7641 52.3613 70.0956 51.5742 70.3417C50.7872 70.5879 49.7554 70.7109 48.4787 70.7109Z" fill="#007AFF"/>
</g>
</g>
<g id="Group_8">
<g id="Group_9">
<path id="Vector_5" d="M55.1678 70.5321V61.2766H65.739V70.5321H62.8938V63.6293H58.0131V70.5321H55.1678Z" fill="white"/>
</g>
<g id="Group_10">
<path id="Vector_6" d="M67.6964 70.5321V61.2766H73.7027C74.5808 61.2766 75.3164 61.411 75.9095 61.6799C76.5017 61.9488 76.9436 62.3278 77.2335 62.817C77.5233 63.3062 77.6677 63.8901 77.6677 64.569C77.6677 65.2477 77.5233 65.8316 77.2335 66.3208C76.9436 66.81 76.5017 67.1891 75.9095 67.4579C75.3164 67.7268 74.5808 67.8612 73.7027 67.8612H69.6722V65.6135H73.5717C73.8433 65.6135 74.0743 65.5694 74.2631 65.4813C74.4518 65.3931 74.5924 65.2719 74.6848 65.1176C74.7763 64.9634 74.8225 64.7805 74.8225 64.569C74.8225 64.3574 74.7763 64.1745 74.6848 64.0202C74.5924 63.866 74.4518 63.7448 74.2631 63.6566C74.0743 63.5684 73.8433 63.5243 73.5717 63.5243H70.3837V67.2266L70.5416 67.2398V70.5321H67.6964Z" fill="white"/>
</g>
<g id="Group_11">
<path id="Vector_7" d="M85.0056 70.7172C83.6797 70.7172 82.5513 70.5078 81.6202 70.0892C80.6891 69.6704 79.9882 69.0975 79.5193 68.3703C79.0494 67.643 78.8145 66.8211 78.8145 65.9044C78.8145 64.9876 79.0494 64.1657 79.5193 63.4384C79.9882 62.7112 80.6891 62.1383 81.6202 61.7195C82.5513 61.3009 83.6797 61.0916 85.0056 61.0916C86.3314 61.0916 87.4599 61.3009 88.391 61.7195C89.3221 62.1383 90.022 62.7112 90.4919 63.4384C90.9618 64.1657 91.1967 64.9876 91.1967 65.9044C91.1967 66.8211 90.9618 67.643 90.4919 68.3703C90.022 69.0975 89.3221 69.6704 88.391 70.0892C87.4599 70.5078 86.3314 70.7172 85.0056 70.7172ZM85.0056 68.4033C85.7345 68.4033 86.3488 68.2954 86.8495 68.0794C87.3501 67.8635 87.7256 67.5659 87.976 67.1869C88.2263 66.8078 88.3515 66.3804 88.3515 65.9044C88.3515 65.4283 88.2263 65.0009 87.976 64.6218C87.7256 64.2428 87.3501 63.9453 86.8495 63.7293C86.3488 63.5133 85.7345 63.4054 85.0056 63.4054C84.2767 63.4054 83.6614 63.5133 83.1608 63.7293C82.6601 63.9453 82.2855 64.2428 82.0352 64.6218C81.7849 65.0009 81.6597 65.4283 81.6597 65.9044C81.6597 66.3804 81.7849 66.8078 82.0352 67.1869C82.2855 67.5659 82.6601 67.8635 83.1608 68.0794C83.6614 68.2954 84.2767 68.4033 85.0056 68.4033Z" fill="white"/>
</g>
<g id="Group_12">
<path id="Vector_8" d="M100.105 70.0509V67.866H100.447C101.06 67.866 101.574 67.7806 101.987 67.6096C102.401 67.4387 102.707 67.2069 102.906 66.9142C103.105 66.6215 103.205 66.2849 103.205 65.9044C103.205 65.3216 102.973 64.8491 102.508 64.4865C102.044 64.124 101.357 63.9427 100.447 63.9427H100.105V61.7578H100.39C101.633 61.7578 102.674 61.9353 103.512 62.2902C104.349 62.6451 104.974 63.134 105.384 63.7568C105.795 64.3797 106 65.0955 106 65.9044C106 66.7132 105.795 67.4292 105.384 68.0519C104.974 68.6747 104.349 69.1636 103.512 69.5185C102.674 69.8735 101.633 70.0509 100.39 70.0509H100.105ZM97.9213 70.0509C96.6783 70.0509 95.6375 69.8735 94.7998 69.5185C93.9621 69.1636 93.3372 68.6747 92.927 68.0519C92.5169 67.4292 92.3118 66.7132 92.3118 65.9044C92.3118 65.0955 92.5169 64.3797 92.927 63.7568C93.3372 63.134 93.9621 62.6451 94.7998 62.2902C95.6375 61.9353 96.6783 61.7578 97.9213 61.7578H98.2063V63.9427H97.8645C97.2512 63.9427 96.738 64.0282 96.324 64.1991C95.9109 64.3701 95.6047 64.6018 95.4054 64.8946C95.2061 65.1872 95.106 65.5238 95.106 65.9044C95.106 66.4871 95.339 66.9598 95.8031 67.3223C96.2681 67.6848 96.9546 67.866 97.8645 67.866H98.2063V70.0509H97.9213ZM97.7326 70.9594V69.1807L97.8915 69.1714V62.6373L97.7326 62.628V60.8494H100.579V62.628L100.421 62.6373V69.1714L100.579 69.1807V70.9594H97.7326Z" fill="white"/>
</g>
</g>
<g id="Group_13">
<g id="Group_14">
<path id="Vector_9" fill-rule="evenodd" clip-rule="evenodd" d="M52.9996 47.6146L52.9995 47.202C51.9518 47.0173 50.9894 47.3403 50.1822 47.9084C49.2775 48.5452 48.7582 49.5574 48.5521 50.7362L47.9623 54.1076H51.3207L50.7309 50.7362C50.6066 50.0261 50.6857 49.3445 51.0679 48.7974C51.5178 48.1535 52.1665 47.7614 52.9993 47.6147L52.9996 47.6146Z" fill="url(#paint0_linear_22_65)"/>
</g>
<g id="Group_15">
<path id="Vector_10" fill-rule="evenodd" clip-rule="evenodd" d="M53 40.8729V40.4604C50.079 40.2285 47.3835 41.2569 45.3183 43.0264C43.1309 44.9001 41.7552 47.6318 41.5107 50.7368L41.2452 54.1077H44.6039L44.3384 50.7368C44.1421 48.2406 44.932 45.9106 46.4332 44.1454C48.0379 42.2583 50.3412 41.0838 53 40.8729Z" fill="url(#paint1_linear_22_65)"/>
</g>
<g id="Group_16">
<path id="Vector_11" fill-rule="evenodd" clip-rule="evenodd" d="M52.9998 34.1306V33.718C50.7263 33.6017 48.4862 33.9505 46.3822 34.7015C44.2371 35.4676 42.2575 36.6641 40.5354 38.2252C38.7792 39.8165 37.3993 41.7324 36.4036 43.8359C35.3888 45.9792 34.8225 48.3198 34.6997 50.7358L34.5286 54.1073H37.8873L37.7161 50.7358C37.6108 48.6761 37.8928 46.6422 38.5685 44.736C39.2585 42.7885 40.3096 40.975 41.7165 39.411C43.1534 37.814 44.8653 36.5337 46.7648 35.6276C48.704 34.7027 50.8135 34.2426 52.999 34.1306H52.9998Z" fill="url(#paint2_linear_22_65)"/>
</g>
<g id="Group_17">
<path id="Vector_12" fill-rule="evenodd" clip-rule="evenodd" d="M53.0002 27.3894L52.999 26.9765C49.8351 26.857 46.7199 27.379 43.8076 28.463C40.8522 29.5626 38.1245 31.2497 35.7697 33.4426C33.3797 35.6669 31.4998 38.3278 30.166 41.2436C28.8141 44.2009 28.0616 47.4219 27.9381 50.7366L27.8112 54.1078H31.17L31.0431 50.7366C30.9331 47.7889 31.391 44.8828 32.3939 42.1697C33.4115 39.4141 34.9526 36.8572 36.9822 34.6606C39.0435 32.4296 41.4958 30.6548 44.1985 29.4098C46.942 28.146 49.9246 27.5055 52.999 27.3894H53.0002Z" fill="url(#paint3_linear_22_65)"/>
</g>
<g id="Group_18">
<path id="Vector_13" fill-rule="evenodd" clip-rule="evenodd" d="M53.0005 20.6471V20.2343C44.5082 19.9802 36.7434 23.2459 31.012 28.6655C25.1478 34.2099 21.4543 42.0157 21.1961 50.7363L21.0957 54.1074H24.4543L24.3539 50.7363C24.1149 42.6944 27.1503 35.329 32.2442 29.9022C37.462 24.3429 44.793 20.8927 53.0005 20.6471Z" fill="url(#paint4_linear_22_65)"/>
</g>
<g id="Group_19">
<path id="Vector_14" fill-rule="evenodd" clip-rule="evenodd" d="M53.0009 13.9059V13.4933C42.6522 13.2368 33.2041 17.2545 26.256 23.893C19.1735 30.6587 14.7218 40.152 14.4622 50.7372L14.3787 54.1083H17.7374L17.6539 50.7372C17.4106 40.8382 21.196 31.7895 27.4996 25.1419C33.9303 18.3613 42.9391 14.1554 53.0009 13.9059Z" fill="url(#paint5_linear_22_65)"/>
</g>
<g id="Group_20">
<path id="Vector_15" fill-rule="evenodd" clip-rule="evenodd" d="M53.0019 7.16251V6.74998C40.7983 6.49161 29.6693 11.2625 21.5026 19.1203C13.2039 27.1063 7.99507 38.2864 7.73344 50.7356L7.66211 54.1067H11.02L10.9509 50.7356C10.7022 38.9776 15.2407 28.2452 22.7544 20.3776C30.3979 12.3755 41.0859 7.41471 52.9998 7.16251H53.0019Z" fill="url(#paint6_linear_22_65)"/>
</g>
<g id="Group_21">
<path id="Vector_16" fill-rule="evenodd" clip-rule="evenodd" d="M52.9998 0.421277V0.00825511C38.9423 -0.251018 26.1311 5.2727 16.7486 14.35C7.23343 23.5567 1.26962 36.4232 1.00684 50.7356L0.944214 54.1068H4.30282L4.24279 50.7356C3.99253 37.1185 9.28067 24.7014 18.0075 15.6136C26.8644 6.39085 39.2326 0.674959 52.9998 0.421277Z" fill="url(#paint7_linear_22_65)"/>
</g>
</g>
<g id="Group_22">
<g id="Group_23">
<path id="Vector_17" fill-rule="evenodd" clip-rule="evenodd" d="M52.9996 47.6146L53.0001 47.6147C53.8327 47.7614 54.4819 48.1535 54.9318 48.7974C55.3141 49.3445 55.3931 50.0261 55.2688 50.7362L54.6791 54.1076H58.0375L57.4477 50.7362C57.2415 49.5574 56.7223 48.5452 55.8176 47.9084C55.0104 47.3403 54.0479 47.0173 53.0002 47.202L52.9996 47.6146Z" fill="url(#paint8_linear_22_65)"/>
</g>
<g id="Group_24">
<path id="Vector_18" fill-rule="evenodd" clip-rule="evenodd" d="M52.9994 40.8729C55.6581 41.0838 57.961 42.2583 59.5657 44.1454C61.0669 45.9106 61.8568 48.2406 61.6605 50.7368L61.395 54.1077H64.7537L64.4882 50.7368C64.2437 47.6318 62.868 44.9001 60.6806 43.0264C58.6154 41.2569 55.9199 40.2285 52.9989 40.4604L52.9994 40.8729Z" fill="url(#paint9_linear_22_65)"/>
</g>
<g id="Group_25">
<path id="Vector_19" fill-rule="evenodd" clip-rule="evenodd" d="M52.9998 34.1306C55.1854 34.2426 57.2956 34.7027 59.2348 35.6276C61.1344 36.5337 62.8462 37.814 64.2831 39.411C65.69 40.975 66.7412 42.7885 67.4311 44.736C68.1068 46.6422 68.3888 48.6761 68.2835 50.7358L68.1124 54.1073H71.4711L71.3 50.7358C71.1772 48.3198 70.6108 45.9792 69.5961 43.8359C68.6003 41.7324 67.2204 39.8165 65.4642 38.2252C63.7421 36.6641 61.7625 35.4676 59.6174 34.7015C57.5135 33.9505 55.2733 33.6017 52.9998 33.718V34.1306Z" fill="url(#paint10_linear_22_65)"/>
</g>
<g id="Group_26">
<path id="Vector_20" fill-rule="evenodd" clip-rule="evenodd" d="M53.0016 27.3894C56.076 27.5055 59.0586 28.146 61.8021 29.4098C64.5048 30.6548 66.9571 32.4296 69.0184 34.6606C71.048 36.8572 72.5891 39.4141 73.6067 42.1697C74.6096 44.8828 75.0675 47.7889 74.9575 50.7366L74.8306 54.1078H78.1895L78.0625 50.7366C77.939 47.4219 77.1866 44.2009 75.8346 41.2436C74.5008 38.3278 72.6209 35.6669 70.2309 33.4426C67.8761 31.2497 65.1485 29.5626 62.193 28.463C59.2807 27.379 56.1655 26.857 53.0016 26.9765V27.3894Z" fill="url(#paint11_linear_22_65)"/>
</g>
<g id="Group_27">
<path id="Vector_21" fill-rule="evenodd" clip-rule="evenodd" d="M52.9994 20.6471C61.2069 20.8927 68.5378 24.3429 73.7557 29.9022C78.8496 35.329 81.885 42.6944 81.646 50.7363L81.5456 54.1074H84.9042L84.8038 50.7363C84.5456 42.0157 80.8521 34.2099 74.9879 28.6655C69.2565 23.2459 61.4917 19.9802 52.9994 20.2343V20.6471Z" fill="url(#paint12_linear_22_65)"/>
</g>
<g id="Group_28">
<path id="Vector_22" fill-rule="evenodd" clip-rule="evenodd" d="M52.999 13.9059C63.0608 14.1554 72.0695 18.3613 78.5002 25.1419C84.8038 31.7895 88.5893 40.8382 88.346 50.7372L88.2625 54.1083H91.6212L91.5377 50.7372C91.2781 40.152 86.8264 30.6587 79.7439 23.893C72.7958 17.2545 63.3476 13.2368 52.999 13.4933V13.9059Z" fill="url(#paint13_linear_22_65)"/>
</g>
<g id="Group_29">
<path id="Vector_23" fill-rule="evenodd" clip-rule="evenodd" d="M52.9979 7.16251C64.9118 7.41471 75.6019 12.3755 83.2454 20.3776C90.7592 28.2452 95.2977 38.9776 95.049 50.7356L94.9799 54.1067H98.3378L98.2664 50.7356C98.0048 38.2864 92.796 27.1063 84.4973 19.1203C76.3306 11.2625 65.2016 6.49161 52.9979 6.74998V7.16251Z" fill="url(#paint14_linear_22_65)"/>
</g>
<g id="Group_30">
<path id="Vector_24" fill-rule="evenodd" clip-rule="evenodd" d="M53.0001 0.421277C66.7673 0.674959 79.1354 6.39085 87.9924 15.6136C96.7192 24.7014 102.007 37.1185 101.757 50.7356L101.697 54.1068H105.056L104.993 50.7356C104.73 36.4232 98.7664 23.5567 89.2513 14.35C79.8688 5.2727 67.0576 -0.251018 53.0001 0.00825511V0.421277Z" fill="url(#paint15_linear_22_65)"/>
</g>
</g>
</g>
</g>
</g>
<defs>
<linearGradient id="paint0_linear_22_65" x1="4.30286" y1="54.1076" x2="47.9623" y2="54.1076" gradientUnits="userSpaceOnUse">
<stop stop-color="#007AFF"/>
<stop offset="1" stop-color="#63ACFA"/>
</linearGradient>
<linearGradient id="paint1_linear_22_65" x1="4.30267" y1="54.1077" x2="47.9621" y2="54.1077" gradientUnits="userSpaceOnUse">
<stop stop-color="#007AFF"/>
<stop offset="1" stop-color="#63ACFA"/>
</linearGradient>
<linearGradient id="paint2_linear_22_65" x1="4.30268" y1="54.1073" x2="47.9621" y2="54.1073" gradientUnits="userSpaceOnUse">
<stop stop-color="#007AFF"/>
<stop offset="1" stop-color="#63ACFA"/>
</linearGradient>
<linearGradient id="paint3_linear_22_65" x1="4.30269" y1="54.1078" x2="47.962" y2="54.1078" gradientUnits="userSpaceOnUse">
<stop stop-color="#007AFF"/>
<stop offset="1" stop-color="#63ACFA"/>
</linearGradient>
<linearGradient id="paint4_linear_22_65" x1="4.30295" y1="54.1074" x2="47.9623" y2="54.1074" gradientUnits="userSpaceOnUse">
<stop stop-color="#007AFF"/>
<stop offset="1" stop-color="#63ACFA"/>
</linearGradient>
<linearGradient id="paint5_linear_22_65" x1="4.30235" y1="54.1083" x2="47.9616" y2="54.1083" gradientUnits="userSpaceOnUse">
<stop stop-color="#007AFF"/>
<stop offset="1" stop-color="#63ACFA"/>
</linearGradient>
<linearGradient id="paint6_linear_22_65" x1="4.30416" y1="54.1067" x2="47.9637" y2="54.1067" gradientUnits="userSpaceOnUse">
<stop stop-color="#007AFF"/>
<stop offset="1" stop-color="#63ACFA"/>
</linearGradient>
<linearGradient id="paint7_linear_22_65" x1="4.3028" y1="54.1068" x2="47.9624" y2="54.1068" gradientUnits="userSpaceOnUse">
<stop stop-color="#007AFF"/>
<stop offset="1" stop-color="#63ACFA"/>
</linearGradient>
<linearGradient id="paint8_linear_22_65" x1="58.0375" y1="54.1076" x2="101.697" y2="54.1076" gradientUnits="userSpaceOnUse">
<stop stop-color="#63ACFA"/>
<stop offset="1" stop-color="white"/>
</linearGradient>
<linearGradient id="paint9_linear_22_65" x1="58.0369" y1="54.1077" x2="101.696" y2="54.1077" gradientUnits="userSpaceOnUse">
<stop stop-color="#63ACFA"/>
<stop offset="1" stop-color="white"/>
</linearGradient>
<linearGradient id="paint10_linear_22_65" x1="58.0371" y1="54.1073" x2="101.696" y2="54.1073" gradientUnits="userSpaceOnUse">
<stop stop-color="#63ACFA"/>
<stop offset="1" stop-color="white"/>
</linearGradient>
<linearGradient id="paint11_linear_22_65" x1="58.0387" y1="54.1078" x2="101.698" y2="54.1078" gradientUnits="userSpaceOnUse">
<stop stop-color="#63ACFA"/>
<stop offset="1" stop-color="white"/>
</linearGradient>
<linearGradient id="paint12_linear_22_65" x1="58.0372" y1="54.1074" x2="101.697" y2="54.1074" gradientUnits="userSpaceOnUse">
<stop stop-color="#63ACFA"/>
<stop offset="1" stop-color="white"/>
</linearGradient>
<linearGradient id="paint13_linear_22_65" x1="58.0371" y1="54.1083" x2="101.696" y2="54.1083" gradientUnits="userSpaceOnUse">
<stop stop-color="#63ACFA"/>
<stop offset="1" stop-color="white"/>
</linearGradient>
<linearGradient id="paint14_linear_22_65" x1="58.0359" y1="54.1067" x2="101.695" y2="54.1067" gradientUnits="userSpaceOnUse">
<stop stop-color="#63ACFA"/>
<stop offset="1" stop-color="white"/>
</linearGradient>
<linearGradient id="paint15_linear_22_65" x1="58.038" y1="54.1068" x2="101.698" y2="54.1068" gradientUnits="userSpaceOnUse">
<stop stop-color="#63ACFA"/>
<stop offset="1" stop-color="white"/>
</linearGradient>
<clipPath id="clip0_22_65">
<rect width="106" height="71" fill="white"/>
</clipPath>
</defs>
</svg>
